<?xml version="1.0" encoding="UTF-8" standalone="no"?>
<!-- Created with Inkscape (http://www.inkscape.org/) -->

<svg
   xmlns:dc="http://purl.org/dc/elements/1.1/"
   xmlns:cc="http://creativecommons.org/ns#"
   xmlns:rdf="http://www.w3.org/1999/02/22-rdf-syntax-ns#"
   xmlns:svg="http://www.w3.org/2000/svg"
   xmlns="http://www.w3.org/2000/svg"
   xmlns:sodipodi="http://sodipodi.sourceforge.net/DTD/sodipodi-0.dtd"
   xmlns:inkscape="http://www.inkscape.org/namespaces/inkscape"
   width="474.00851"
   height="159.74747"
   id="svg2"
   version="1.1"
   inkscape:version="0.92.5 (2060ec1f9f, 2020-04-08)"
   sodipodi:docname="dfs.svg">
  <defs
     id="defs4">
    <inkscape:perspective
       sodipodi:type="inkscape:persp3d"
       inkscape:vp_x="0 : 526.18109 : 1"
       inkscape:vp_y="0 : 1000 : 0"
       inkscape:vp_z="744.09448 : 526.18109 : 1"
       inkscape:persp3d-origin="372.04724 : 350.78739 : 1"
       id="perspective10" />
  </defs>
  <sodipodi:namedview
     id="base"
     pagecolor="#ffffff"
     bordercolor="#666666"
     borderopacity="1.0"
     inkscape:pageopacity="0.0"
     inkscape:pageshadow="2"
     inkscape:zoom="2.8"
     inkscape:cx="300.15106"
     inkscape:cy="79.672059"
     inkscape:document-units="px"
     inkscape:current-layer="layer1"
     showgrid="true"
     inkscape:window-width="1920"
     inkscape:window-height="1016"
     inkscape:window-x="0"
     inkscape:window-y="27"
     inkscape:window-maximized="1"
     inkscape:snap-bbox="true"
     inkscape:bbox-nodes="true"
     fit-margin-top="0"
     fit-margin-left="70"
     fit-margin-right="70"
     fit-margin-bottom="0">
    <inkscape:grid
       type="xygrid"
       id="grid7687"
       originx="53.938843"
       originy="-505.28741" />
  </sodipodi:namedview>
  <metadata
     id="metadata7">
    <rdf:RDF>
      <cc:Work
         rdf:about="">
        <dc:format>image/svg+xml</dc:format>
        <dc:type
           rdf:resource="http://purl.org/dc/dcmitype/StillImage" />
        <dc:title></dc:title>
      </cc:Work>
    </rdf:RDF>
  </metadata>
  <g
     inkscape:label="Layer 1"
     inkscape:groupmode="layer"
     id="layer1"
     transform="translate(53.938843,-387.3273)">
    <ellipse
       ry="72.712555"
       rx="69.855408"
       cy="472.36221"
       cx="278.21426"
       style="fill:#ff6600;fill-opacity:1;stroke:#ff000f;stroke-width:4;stroke-linejoin:miter;stroke-miterlimit:4;stroke-dasharray:none;stroke-dashoffset:0;stroke-opacity:1"
       id="path2818-3" />
    <text
       xml:space="preserve"
       style="font-style:normal;font-variant:normal;font-weight:normal;font-stretch:normal;line-height:0%;font-family:'DejaVu Sans';-inkscape-font-specification:'DejaVu Sans';fill:#000000;fill-opacity:1;stroke:none"
       x="251.42854"
       y="532.71942"
       id="text3592-6"><tspan
         sodipodi:role="line"
         id="tspan3594-7"
         x="251.42854"
         y="532.71942"
         style="font-size:10px;line-height:1.25">Code-base</tspan></text>
    <text
       xml:space="preserve"
       style="font-style:normal;font-variant:normal;font-weight:normal;font-stretch:normal;line-height:0%;font-family:'DejaVu Sans';-inkscape-font-specification:'DejaVu Sans';fill:#000000;fill-opacity:1;stroke:none"
       x="239.42854"
       y="395.21933"
       id="text3596-5"><tspan
         sodipodi:role="line"
         id="tspan3598-3"
         x="239.42854"
         y="395.21933"
         style="font-size:10px;line-height:1.25">Understanding</tspan></text>
    <path
       inkscape:connector-curvature="0"
       style="fill:none;stroke:#ff000f;stroke-width:0.5;stroke-linecap:butt;stroke-linejoin:miter;stroke-miterlimit:4;stroke-dasharray:none;stroke-opacity:1"
       d="m 223.92857,431.6479 c 0.79878,0.46442 1.62662,0.7803 2.5,1.07143 0.35714,0.11905 0.70228,0.28331 1.07143,0.35714 0.23347,0.0467 0.47619,0 0.71428,0 0.11905,0 0.27297,0.0842 0.35715,0 0.0842,-0.0842 -0.0842,-0.27296 0,-0.35714 0.18823,-0.18823 0.52605,-0.16891 0.71428,-0.35714 0.26275,-0.26275 0.64455,-1.57651 0.71429,-1.78572 0.23809,-0.71428 0.53167,-1.41241 0.71428,-2.14285 0.0289,-0.1155 -0.0233,-0.24041 0,-0.35715 0.0963,-0.48131 0.28773,-0.94266 0.35715,-1.42857 0.0505,-0.35355 -0.11294,-0.73261 0,-1.07143 0.13573,-0.4072 0.5452,-0.6769 0.71428,-1.07143 0.19336,-0.45115 0.13763,-0.98954 0.35714,-1.42857 0.0532,-0.10648 0.25809,0.066 0.35715,0 0.28016,-0.18677 0.52751,-0.43412 0.71428,-0.71428 0.066,-0.0991 -0.0842,-0.27297 0,-0.35715 0.30352,-0.30351 0.73626,-0.44614 1.07143,-0.71428 1.10729,-0.88583 0.32004,-0.69574 1.78572,-1.42857 0.67343,-0.33672 1.46942,-0.37757 2.14285,-0.71429 0.38392,-0.19196 0.68751,-0.52233 1.07143,-0.71428 0.10648,-0.0532 0.25067,0.0532 0.35714,0 0.15059,-0.0753 0.21706,-0.26376 0.35715,-0.35715 0.22149,-0.14766 0.46175,-0.27296 0.71428,-0.35714 0.11294,-0.0376 0.25809,0.066 0.35715,0 1.99311,-1.32875 -0.80918,-0.13113 1.78571,-1.42857 2.04424,-1.02212 0.2254,0.2219 1.78571,-0.71429 1.0096,-0.60575 0.84712,-0.48997 1.42858,-1.07143 0.23809,-0.23809 0.45135,-0.50394 0.71428,-0.71428 0.67035,-0.53628 1.47251,-0.89229 2.14286,-1.42857 0.26293,-0.21035 0.42555,-0.54105 0.71428,-0.71429 0.32282,-0.19369 0.72541,-0.20885 1.07143,-0.35714 0.48935,-0.20972 0.97205,-0.44037 1.42857,-0.71429 0.14437,-0.0866 0.20656,-0.28185 0.35715,-0.35714 2.95576,-1.47788 -1.21586,1.15809 2.5,-1.07143 0.14436,-0.0866 0.20656,-0.28185 0.35714,-0.35714 0.10648,-0.0532 0.25066,0.0532 0.35714,0 0.38392,-0.19196 0.68751,-0.52233 1.07143,-0.71429 0.33672,-0.16836 0.71429,-0.23809 1.07143,-0.35714 0.71429,-0.2381 1.45081,-0.41769 2.14286,-0.71429 0.48935,-0.20972 0.97204,-0.44037 1.42857,-0.71428 0.14437,-0.0866 0.20082,-0.29462 0.35714,-0.35714 0.29766,-0.11907 2.1104,-0.45455 2.5,-0.71429 0.0991,-0.066 -0.10648,-0.3039 0,-0.35714 0.31944,-0.15972 0.71429,0 1.07143,0 0.59524,0 1.20204,-0.11674 1.78571,0 0.26103,0.0522 0.46713,0.25828 0.71429,0.35714 0.34954,0.13981 0.71429,0.2381 1.07143,0.35714 0.35714,0.11905 0.71428,0.2381 1.07143,0.35715 0.11905,0.11904 0.20656,0.28185 0.35714,0.35714 0.10648,0.0532 0.27296,-0.0842 0.35714,0 0.0842,0.0842 0,0.23809 0,0.35714 0,0.2381 0.0467,0.48082 0,0.71429 -0.2369,1.18449 -0.33333,0.83333 -0.71428,1.78571 -0.13982,0.34954 -0.2381,0.71429 -0.35715,1.07143 -0.23809,0.35714 -0.52232,0.68751 -0.71428,1.07143 -0.16836,0.33672 -0.16346,0.74861 -0.35714,1.07143 -0.17324,0.28873 -0.47619,0.47619 -0.71429,0.71428 -0.35714,0.35715 -0.74809,0.68342 -1.07143,1.07143 -0.27479,0.32975 -0.39125,0.78878 -0.71428,1.07143 -2.61503,2.28815 -1.39154,0.73339 -3.92858,2.14286 -0.52033,0.28907 -0.92381,0.75595 -1.42857,1.07143 -3.12573,1.56286 -0.56304,0.0933 -1.78571,1.07142 -0.4648,0.37185 -0.9713,0.69037 -1.42857,1.07143 -0.25868,0.21556 -0.44491,0.51226 -0.71429,0.71429 -0.21296,0.15972 -0.50133,0.19742 -0.71428,0.35714 -0.26938,0.20203 -0.45562,0.49873 -0.71429,0.71429 -5.35008,4.01256 1.97698,-1.58796 -2.5,2.14285 -0.32974,0.27479 -0.74553,0.43495 -1.07143,0.71429 -0.51131,0.43827 -0.88982,1.02451 -1.42857,1.42857 -0.85184,0.63888 -1.99068,0.80967 -2.85714,1.42857 -0.411,0.29357 -0.67703,0.75591 -1.07143,1.07143 -0.20787,0.16629 -0.47619,0.2381 -0.71429,0.35714 -0.47619,0.35715 -0.97129,0.69037 -1.42857,1.07143 -0.25867,0.21556 -0.45561,0.49873 -0.71428,0.71429 -0.45728,0.38106 -0.97664,0.68405 -1.42858,1.07143 -0.38348,0.3287 -0.66736,0.76838 -1.07142,1.07143 -0.55533,0.41649 -1.19707,0.70352 -1.78572,1.07142 -0.36399,0.2275 -0.70744,0.4868 -1.07143,0.71429 -0.58864,0.3679 -1.23038,0.65493 -1.78571,1.07143 -0.40406,0.30304 -0.68342,0.74809 -1.07143,1.07143 -0.32975,0.27479 -0.76792,0.41077 -1.07143,0.71428 -0.30351,0.30352 -0.41077,0.76792 -0.71428,1.07143 -0.0842,0.0842 -0.27297,-0.0842 -0.35715,0 -0.0842,0.0842 0.066,0.25809 0,0.35714 -0.18677,0.28017 -0.51225,0.44492 -0.71428,0.71429 -0.15972,0.21296 -0.16891,0.52606 -0.35715,0.71429 -0.0842,0.0842 -0.25808,-0.066 -0.35714,0 -0.28016,0.18677 -0.47619,0.47619 -0.71428,0.71428 -0.35715,0.35714 -0.71429,0.71429 -1.07143,1.07143 -0.2381,0.2381 -0.43412,0.52751 -0.71429,0.71429 -0.0991,0.066 -0.23809,0 -0.35714,0 -0.2381,0.23809 -0.50394,0.45135 -0.71429,0.71428 -0.26814,0.33518 -0.49344,0.70337 -0.71428,1.07143 -0.13696,0.22826 -0.16891,0.52606 -0.35715,0.71429 -0.18823,0.18823 -0.55456,0.14418 -0.71428,0.35714 -0.22588,0.30117 -0.18879,0.73471 -0.35714,1.07143 -0.19196,0.38391 -0.47619,0.71428 -0.71429,1.07143 -0.23809,0.35714 -0.44615,0.73625 -0.71429,1.07142 -0.21034,0.26294 -0.54104,0.42556 -0.71428,0.71429 -0.19369,0.32281 -0.18879,0.73471 -0.35714,1.07143 -0.19196,0.38392 -0.52233,0.68751 -0.71429,1.07143 -0.0532,0.10648 0.0289,0.24165 0,0.35714 -0.0913,0.36522 -0.23809,0.71429 -0.35714,1.07143 -0.81065,2.43194 0.20972,-0.55926 -1.07143,2.85714 -0.26437,0.70499 -0.4177,1.45081 -0.71429,2.14286 -0.20972,0.48935 -0.50456,0.93922 -0.71428,1.42857 -0.29659,0.69205 -0.37757,1.46942 -0.71429,2.14286 -1.03617,2.07235 -0.48937,-0.005 -1.42857,2.5 -0.17235,0.45959 -0.17485,0.97283 -0.35714,1.42857 -0.0625,0.15632 -0.27053,0.21278 -0.35715,0.35714 -1.53238,3.06475 0.0858,-0.024 -1.42858,2.5 -0.93618,1.56031 0.30783,-0.25852 -0.71428,1.78572 -0.19196,0.38391 -0.54521,0.6769 -0.71429,1.07142 -0.19335,0.45116 -0.23809,0.95239 -0.35714,1.42858 -0.11905,0.47619 -0.26088,0.94725 -0.35714,1.42857 -0.0233,0.11673 0.0289,0.24165 0,0.35714 -0.18261,0.73044 -0.60781,1.3975 -0.71429,2.14286 -0.0673,0.4714 0.0673,0.95716 0,1.42857 -0.0532,0.37268 -0.23809,0.71428 -0.35714,1.07143 -0.30662,0.91984 -0.71429,1.87574 -0.71429,2.85714 0,0.11905 -0.0376,0.2442 0,0.35714 0.21622,0.64866 0.30566,0.66281 0.71429,1.07143 0.11905,0.11905 0.22245,0.25613 0.35714,0.35714 2.0887,1.56653 0.18781,0.31481 1.78571,0.71429 0.25826,0.0646 0.45604,0.29258 0.71429,0.35714 0.62328,0.15582 1.22754,-0.17108 1.78572,-0.35714 0.35715,-0.11905 0.71429,-0.23809 1.07143,-0.35714 0.35715,-0.11905 0.73471,-0.18879 1.07143,-0.35715 0.15059,-0.0753 0.2381,-0.23809 0.35714,-0.35714 0.2381,-0.23809 0.50394,-0.45135 0.71429,-0.71428 0.53628,-0.67035 0.89229,-1.47251 1.42857,-2.14286 0.21035,-0.26293 0.50394,-0.45135 0.71429,-0.71429 0.53628,-0.67035 0.9296,-1.44429 1.42857,-2.14285 3.50158,-4.66878 -0.82545,1.15562 1.78571,-2.5 0.13067,-0.18294 1.60536,-2.07917 1.78572,-2.5 0.19335,-0.45116 0.20192,-0.96292 0.35714,-1.42858 0.0842,-0.25253 0.27296,-0.46174 0.35714,-0.71428 0.52545,-1.57635 0.35715,-2.63613 0.35715,-4.28572 0,-1.66666 0,-3.33333 0,-5 0,-0.47619 -0.0934,-0.96162 0,-1.42857 0.14766,-0.7383 0.49793,-1.42168 0.71428,-2.14285 0.28209,-0.94029 0.40385,-1.92583 0.71429,-2.85715 0.20273,-0.60819 0.53007,-1.17166 0.71428,-1.78571 0.17443,-0.58143 0.16519,-1.20984 0.35715,-1.78572 0.16835,-0.50507 0.47619,-0.95238 0.71428,-1.42857 0.2381,-0.47619 0.39485,-1.00265 0.71429,-1.42857 0.0714,-0.0952 0.27296,0.0842 0.35714,0 1.28664,-1.28664 0.77177,-1.28327 1.78571,-2.5 0.32335,-0.38801 0.71429,-0.71428 1.07143,-1.07143 0.2381,-0.23809 0.45562,-0.49872 0.71429,-0.71428 0.45727,-0.38106 0.97663,-0.68406 1.42857,-1.07143 1.73515,-1.48727 0.40074,-0.91466 2.85714,-2.14286 0.57341,-0.2867 1.21231,-0.42758 1.78572,-0.71428 0.62087,-0.31044 1.17891,-0.73432 1.78571,-1.07143 0.9308,-0.51711 1.93264,-0.90029 2.85714,-1.42857 0.37268,-0.21296 0.67691,-0.54521 1.07143,-0.71429 0.45116,-0.19335 0.95843,-0.2161 1.42857,-0.35714 0.72117,-0.21635 1.40665,-0.55653 2.14286,-0.71429 0.93849,-0.2011 1.91866,-0.15604 2.85714,-0.35714 0.007,-0.002 4.26061,-1.42104 4.28572,-1.42857 2.23227,-0.66968 0.73545,0.0303 3.21428,-1.07143 0.97303,-0.43246 1.86015,-1.0547 2.85715,-1.42857 0.45959,-0.17235 0.98954,-0.13763 1.42857,-0.35715 0.35714,-0.17857 0.71428,-0.80357 1.07143,-1.07142 1.02525,-0.76894 1.02392,-0.51443 1.78571,-1.42858 0.38106,-0.45727 0.65053,-1.00767 1.07143,-1.42857 0.4209,-0.42089 0.97663,-0.68405 1.42857,-1.07143 1.14706,-0.98319 2.06723,-2.23109 3.21429,-3.21428 1.23549,-1.059 2.69307,-1.79815 3.92857,-2.85714 0.38348,-0.3287 0.68795,-0.74273 1.07143,-1.07143 1.16719,-1.00046 1.3694,-0.97815 2.5,-1.78572 0.48436,-0.34597 0.92381,-0.75595 1.42857,-1.07143 0.45147,-0.28217 0.96632,-0.45014 1.42857,-0.71428 0.37268,-0.21296 0.71429,-0.47619 1.07143,-0.71429 0.47619,-0.23809 0.96632,-0.45014 1.42857,-0.71428 1.31877,-0.75358 0.93018,-0.83989 2.5,-1.42857 0.45959,-0.17235 0.96898,-0.1848 1.42857,-0.35715 0.997,-0.37387 1.84699,-1.09185 2.85714,-1.42857 0.57588,-0.19196 1.19682,-0.20992 1.78572,-0.35714 0.36522,-0.0913 0.70621,-0.26584 1.07143,-0.35714 0.20206,-0.0505 1.65375,-0.033 1.78571,0 0.58407,0.14601 1.2579,0.39759 1.78572,0.71428 0.36806,0.22084 0.68751,0.52233 1.07142,0.71429 0.10648,0.0532 0.25067,-0.0532 0.35715,0 0.15058,0.0753 0.3039,0.19742 0.35714,0.35714 0.0545,0.16349 0,1.58637 0,1.78571 0,0.35715 0.0587,0.71915 0,1.07143 -0.0619,0.37134 -0.23809,0.71429 -0.35714,1.07143 -0.11905,0.35714 -0.18879,0.73471 -0.35715,1.07143 -0.19195,0.38392 -0.52232,0.68751 -0.71428,1.07143 -0.16836,0.33672 -0.2381,0.71428 -0.35714,1.07143 -0.2381,0.35714 -0.52233,0.68751 -0.71429,1.07143 -0.16836,0.33671 -0.17037,0.74456 -0.35714,1.07142 -0.79141,1.38497 -2.10192,2.45906 -3.21429,3.57143 -0.59524,0.59524 -1.1522,1.23139 -1.78571,1.78572 -0.32303,0.28265 -0.72215,0.4648 -1.07143,0.71428 -0.48437,0.34598 -0.92381,0.75596 -1.42857,1.07143 -0.45147,0.28217 -1.00266,0.39485 -1.42857,0.71429 -0.0952,0.0714 0.0842,0.27296 0,0.35714 0.12916,1.93207 -1.00266,0.39485 -1.42858,0.71429 -0.40406,0.30304 -0.67703,0.75591 -1.07142,1.07142 -0.20787,0.1663 -0.48603,0.22019 -0.71429,0.35715 -0.36806,0.22084 -0.71429,0.47619 -1.07143,0.71428 -0.35714,0.2381 -0.74168,0.4395 -1.07143,0.71429 -1.75316,1.46097 -0.35997,0.80534 -2.5,2.14286 -3.91527,1.95763 0.87841,-0.62744 -2.5,1.78571 -0.43323,0.30945 -0.99534,0.40484 -1.42857,0.71429 -0.87635,0.62596 -1.63624,1.80899 -2.5,2.5 -0.33517,0.26814 -0.74168,0.43949 -1.07143,0.71428 -0.77602,0.64669 -1.37589,1.48546 -2.14285,2.14286 -1.35295,1.15966 -2.93278,2.05462 -4.28572,3.21428 -0.38348,0.3287 -0.71428,0.71429 -1.07143,1.07143 -0.35714,0.35715 -0.74273,0.68795 -1.07143,1.07143 -0.38737,0.45194 -0.65053,1.00768 -1.07142,1.42857 -0.4209,0.4209 -0.97664,0.68406 -1.42858,1.07143 -0.38348,0.3287 -0.68794,0.74273 -1.07142,1.07143 -0.45194,0.38738 -0.97664,0.68405 -1.42858,1.07143 -1.43155,1.22705 -0.83999,0.98 -2.14285,2.5 -0.3287,0.38348 -0.71429,0.71428 -1.07143,1.07143 -0.35714,0.47619 -0.68405,0.97663 -1.07143,1.42857 -0.3287,0.38348 -0.77786,0.66043 -1.07143,1.07143 -0.008,0.0114 -1.40916,2.82318 -1.42857,2.85714 -1.02479,1.79338 -0.5035,0.34149 -1.42857,2.5 -0.72997,1.70327 -0.11059,0.41698 -0.35714,2.14286 -0.13884,0.97187 -0.57545,1.88527 -0.71429,2.85714 -0.0505,0.35355 0,0.71429 0,1.07143 0,0.47619 0,0.95238 0,1.42857 0,0.47619 -0.0591,0.95606 0,1.42857 0.0609,0.48706 0.2381,0.95238 0.35714,1.42857 0.44845,1.7938 0.20193,0.96292 0.71429,2.5 0.11905,0.35715 0.28331,0.70228 0.35714,1.07143 0.0934,0.46694 0,0.95238 0,1.42857 0,0.35715 0.0866,0.72495 0,1.07143 -0.228,0.91201 -0.99562,2.34839 -1.42857,3.21429 -0.47323,0.94646 -0.95534,1.91067 -1.42857,2.85713 -0.2381,0.47619 -0.50457,0.93922 -0.71429,1.42857 -0.14829,0.34602 -0.20884,0.72541 -0.35714,1.07143 -0.20972,0.48935 -0.50456,0.93922 -0.71429,1.42857 -0.14829,0.34602 -0.23809,0.71429 -0.35714,1.07143 -0.11905,0.35714 -0.25372,0.70945 -0.35714,1.07143 -0.13485,0.47196 -0.1848,0.96898 -0.35714,1.42857 -0.18694,0.4985 -0.52735,0.93007 -0.71429,1.42857 -0.17235,0.4596 -0.18479,0.96898 -0.35714,1.42857 -0.18694,0.4985 -0.47619,0.95238 -0.71429,1.42857 -0.23809,0.4762 -0.45014,0.96633 -0.71428,1.42858 -0.21296,0.37267 -0.50133,0.69875 -0.71429,1.07142 -0.26414,0.46225 -0.41896,0.98559 -0.71429,1.42858 -2.18149,3.27224 1.16093,-3.03613 -1.42857,2.14285 -2.58949,5.17899 0.75293,-1.12938 -1.42857,2.14286 -0.55604,0.83407 -0.87252,2.02307 -1.42857,2.85714 -0.13829,0.20745 -0.57599,0.50685 -0.71429,0.71429 -0.14766,0.22149 -0.19742,0.50133 -0.35714,0.71428 -0.20203,0.26938 -0.52751,0.43412 -0.71428,0.71429 -0.066,0.0991 0.11904,0.35714 0,0.35714 -0.11905,0 0.0842,-0.27296 0,-0.35714 -0.002,-0.002 -1.05949,0.003 -1.07143,0 -0.25825,-0.0646 -0.47619,-0.23809 -0.71429,-0.35714 -1.02645,-0.51323 -0.99378,-0.44366 -2.14286,-1.42857 -0.38348,-0.3287 -0.68794,-0.74273 -1.07142,-1.07143 -0.45194,-0.38738 -0.97664,-0.68406 -1.42858,-1.07143 -0.38348,-0.3287 -0.71428,-0.71429 -1.07142,-1.07143 -0.35715,-0.35714 -0.74809,-0.68342 -1.07143,-1.07143 -0.27479,-0.32974 -0.4648,-0.72215 -0.71429,-1.07143 -0.69195,-0.96873 -1.5119,-1.84762 -2.14286,-2.85714 -0.56434,-0.90294 -0.91146,-1.92634 -1.42857,-2.85714 -0.33711,-0.60681 -0.73431,-1.17891 -1.07143,-1.78572 -0.25855,-0.4654 -0.45014,-0.96632 -0.71428,-1.42857 -0.21296,-0.37268 -0.5452,-0.6769 -0.71429,-1.07143 -0.19335,-0.45116 -0.18479,-0.96897 -0.35714,-1.42857 -0.18694,-0.4985 -0.51656,-0.93425 -0.71429,-1.42857 -0.0442,-0.11053 0.0289,-0.24165 0,-0.35714 -0.0913,-0.36522 -0.35714,-0.69497 -0.35714,-1.07143 0,-0.49085 0.27645,-0.94441 0.35714,-1.42857 0.11743,-0.70457 -0.10101,-1.43575 0,-2.14286 0.0954,-0.66778 0.79705,-2.01981 1.07143,-2.49999 0.21296,-0.37268 0.50133,-0.69875 0.71429,-1.07143 0.63512,-1.11146 0.63755,-1.55077 1.42857,-2.5 0.32334,-0.38801 0.71429,-0.71428 1.07143,-1.07143 0.35714,-0.35714 0.68342,-0.74808 1.07143,-1.07143 0.32974,-0.27478 0.74168,-0.43949 1.07143,-0.71428 0.83333,-0.69445 1.66666,-1.85185 2.5,-2.5 1.09587,-0.85235 2.43407,-1.34671 3.57142,-2.14286 0.62449,-0.43714 1.16124,-0.99143 1.78572,-1.42857 2.67215,-1.87051 0.83511,-0.35821 3.21428,-1.78571 0.73613,-0.44168 1.4968,-0.86327 2.14286,-1.42858 0.32303,-0.28265 0.41077,-0.76791 0.71429,-1.07142 0.1126,-0.11261 2.84532,-2.28917 3.21428,-2.5 0.32686,-0.18678 0.72541,-0.20885 1.07143,-0.35715 0.48935,-0.20972 0.93922,-0.50456 1.42857,-0.71428 0.34603,-0.1483 0.73471,-0.18879 1.07143,-0.35715 0.38392,-0.19195 0.68751,-0.52232 1.07143,-0.71428 0.33672,-0.16836 0.72189,-0.21733 1.07143,-0.35714 0.24716,-0.0989 0.46713,-0.25828 0.71428,-0.35715 0.34954,-0.13981 0.71429,-0.23809 1.07143,-0.35714 0.35715,-0.11905 0.70009,-0.29525 1.07143,-0.35714 1.67586,-0.27931 0.56885,0.47049 2.5,-0.35715 0.39453,-0.16908 0.68751,-0.52232 1.07143,-0.71428 0.33672,-0.16836 0.72541,-0.20885 1.07143,-0.35714 0.48935,-0.20973 0.93425,-0.51656 1.42857,-0.71429 0.11053,-0.0442 0.25066,0.0532 0.35714,0 0.38392,-0.19196 0.68751,-0.52233 1.07143,-0.71429 1.03894,-0.51947 1.35571,-0.25656 2.5,-0.71428 0.15632,-0.0625 0.2381,-0.2381 0.35714,-0.35714 0.35715,-0.11905 0.70621,-0.26584 1.07143,-0.35715 4.94293,-1.23573 -0.4728,0.11857 2.85715,-0.35714 0.48591,-0.0694 0.94941,-0.25066 1.42857,-0.35714 4.08065,-0.90681 -0.2697,0.15671 3.21428,-0.71429 1.7938,-0.44845 0.96292,-0.20192 2.5,-0.71428 0.35715,-0.11905 0.73471,-0.18879 1.07143,-0.35715 0.38392,-0.19196 0.70337,-0.49344 1.07143,-0.71428 0.68479,-0.41088 1.44948,-0.67522 2.14286,-1.07143 0.84167,-0.48096 1.73346,-1.23819 2.5,-1.78572 0.34928,-0.24948 0.74168,-0.43949 1.07143,-0.71428 0.38801,-0.32334 0.71428,-0.71429 1.07142,-1.07143 0.4762,-0.35714 0.9713,-0.69037 1.42858,-1.07143 0.47619,-0.39682 1.36904,-1.48809 1.78571,-1.78571 0.43323,-0.30945 0.98559,-0.41897 1.42857,-0.71429 0.28017,-0.18678 0.47619,-0.47619 0.71429,-0.71428 0.35714,-0.35715 0.68794,-0.74273 1.07143,-1.07143 0.45193,-0.38738 0.97129,-0.69037 1.42857,-1.07143 0.25867,-0.21556 0.47619,-0.47619 0.71428,-0.71429 0.35715,-0.35714 0.74809,-0.68342 1.07143,-1.07143 1.68711,-2.02453 -0.31801,-0.0548 1.42857,-2.5 0.29357,-0.41099 0.79127,-0.65118 1.07143,-1.07142 0.20883,-0.31324 0.20885,-0.72541 0.35714,-1.07143 0.66144,-1.54335 0.83627,-1.21102 1.07143,-2.85715 0.0505,-0.35355 -0.0505,-0.71787 0,-1.07142 0.17619,-1.23334 0.55183,-1.33188 0.35715,-2.5 -0.12378,-0.74268 -0.50745,-1.41891 -0.71429,-2.14286 -0.13485,-0.47196 -0.16379,-0.97741 -0.35714,-1.42857 -0.16909,-0.39453 -0.52233,-0.68751 -0.71429,-1.07143 -0.0532,-0.10648 0.0532,-0.25066 0,-0.35714 -0.29278,-0.58557 -1.27578,-0.76547 -1.78571,-1.07143 -0.94927,-0.56956 -1.0461,-0.88864 -2.14286,-1.07143 -0.35228,-0.0587 -0.71914,0.0587 -1.07143,0 -0.37134,-0.0619 -0.69875,-0.3039 -1.07143,-0.35714 -0.4714,-0.0673 -0.95716,0.0673 -1.42857,0 -0.37268,-0.0532 -0.69875,-0.30391 -1.07143,-0.35715 -0.4714,-0.0673 -0.95238,0 -1.42857,0 -0.47619,0 -0.95238,0 -1.42857,0 -0.35714,0 -0.71787,-0.0505 -1.07143,0 -0.48591,0.0694 -0.94073,0.30294 -1.42857,0.35715 -0.5916,0.0657 -1.19412,-0.0657 -1.78571,0 -0.48785,0.0542 -0.94942,0.25066 -1.42858,0.35714 -0.59257,0.13168 -1.19314,0.22546 -1.78571,0.35714 -0.47916,0.10648 -0.94073,0.30294 -1.42857,0.35714 -0.5916,0.0657 -1.19507,-0.0738 -1.78572,0 -0.7471,0.0934 -1.40455,0.56663 -2.14285,0.71429 -0.23347,0.0467 -0.47943,-0.0391 -0.71429,0 -0.48417,0.0807 -0.94151,0.29626 -1.42857,0.35714 -0.47251,0.0591 -0.95606,-0.0591 -1.42857,0 -0.48706,0.0609 -0.94073,0.30294 -1.42857,0.35715 -0.5916,0.0657 -1.19646,-0.0842 -1.78572,0 -0.26352,0.0376 -0.45603,0.29258 -0.71428,0.35714 -0.23099,0.0577 -0.47943,-0.0391 -0.71429,0 -0.47619,0.11905 -0.95238,0.23809 -1.42857,0.35714 -0.23809,0 -0.47943,-0.0391 -0.71429,0 -1.33581,0.22264 -2.63239,0.70109 -3.92857,1.07143 -1.88382,0.53823 -3.81344,0.95336 -5.71428,1.42857 -0.47619,0.11905 -0.96898,0.1848 -1.42857,0.35714 -0.4985,0.18694 -0.93008,0.52735 -1.42858,0.71429 -3.37364,1.26512 -0.0747,-0.31977 -2.14285,0.71429 -0.2381,0.11904 -0.48602,0.22018 -0.71429,0.35714 -0.36806,0.22084 -0.6769,0.5452 -1.07143,0.71428 -0.45116,0.19336 -0.97741,0.16379 -1.42857,0.35715 -0.39452,0.16908 -0.69875,0.50132 -1.07143,0.71428 -0.46225,0.26415 -0.96632,0.45015 -1.42857,0.71429 -0.37268,0.21296 -0.68751,0.52233 -1.07143,0.71428 -0.10648,0.0532 -0.25066,-0.0532 -0.35714,0 -0.61532,0.30767 -1.52753,1.12091 -2.14286,1.42858 -0.33671,0.16835 -0.73471,0.18878 -1.07143,0.35714 -0.38391,0.19196 -0.71428,0.47619 -1.07142,0.71428 -0.71429,0.47619 -1.42858,0.95239 -2.14286,1.42858 -0.35714,0.23809 -0.68751,0.52232 -1.07143,0.71428 -0.10648,0.0532 -0.27296,-0.0842 -0.35714,0 -1.39384,1.39384 0.0827,0.1918 -0.35715,1.07143 -0.0753,0.15058 -0.28185,0.20656 -0.35714,0.35714 -0.16137,0.32275 0.30761,0.92281 0.35714,1.07143 0.0377,0.11294 -0.0842,0.27297 0,0.35714 0.30352,0.30352 0.71429,0.47619 1.07143,0.71429 1.26579,0.84386 1.56217,1.10543 3.21429,1.78571 6.1044,2.51358 1.86399,0.52192 8.92857,2.5 1.34181,0.37571 2.58103,1.07396 3.92857,1.42858 0.92819,0.24426 1.91041,0.19935 2.85714,0.35714 0.48417,0.0807 0.94942,0.25066 1.42858,0.35714 4.08065,0.90681 -0.2697,-0.15671 3.21428,0.71429 0.95238,0.23809 1.92583,0.40384 2.85714,0.71428 0.25254,0.0842 0.46962,0.25229 0.71429,0.35715 0.58926,0.25253 1.19048,0.47619 1.78571,0.71428 1.07469,0.42987 2.2133,0.82798 3.21429,1.42857 0.14437,0.0866 0.20656,0.28185 0.35714,0.35715 0.33672,0.16835 0.74862,0.16345 1.07143,0.35714 3.32187,1.99312 -2.503,-0.71579 1.78572,1.42857 0.10648,0.0532 0.27296,-0.0842 0.35714,0 0.16836,0.16836 -0.10648,0.50133 0,0.71429 0.0753,0.15058 0.29461,0.20082 0.35714,0.35714 0.41489,1.03722 0.35714,1.2396 0.35714,2.14286 0,0.11904 0.0289,0.24165 0,0.35714 -0.0913,0.36522 -0.29525,0.70009 -0.35714,1.07143 -0.0587,0.35228 0,0.71428 0,1.07143 0,0.47619 0,0.95238 0,1.42857 0,0.35714 0.0505,0.71787 0,1.07143 -0.0694,0.48591 -0.29626,0.94151 -0.35714,1.42857 -0.16197,1.29573 0.16197,2.98998 0,4.28571 0.41336,0.92965 -0.59051,1.40018 -0.71429,2.14286 -0.0783,0.46971 0.0591,0.95606 0,1.42857 -0.0609,0.48706 -0.23809,0.95238 -0.35714,1.42857 -0.11905,0.47619 -0.2223,0.95661 -0.35714,1.42857 -0.20685,0.72396 -0.50744,1.41891 -0.71429,2.14286 -0.26969,0.94392 -0.47619,1.90476 -0.71428,2.85714 -0.11905,0.47619 -0.1848,0.96898 -0.35715,1.42857 -0.18693,0.4985 -0.52735,0.93008 -0.71428,1.42858 -0.17235,0.45959 -0.2381,0.95238 -0.35715,1.42857 -0.35678,1.42713 -0.68437,2.86651 -1.07142,4.2857 -0.22804,0.83614 -0.48625,1.66386 -0.71429,2.5 -0.12915,0.47355 -0.28773,0.94266 -0.35714,1.42857 -0.11785,0.82496 0.10336,1.6731 0,2.5 -0.50151,4.01208 -0.35715,-1.49495 -0.35715,3.21429 0,0.95238 0,1.90476 0,2.85714 0,0.35714 0.07,0.72122 0,1.07143 -0.0522,0.26103 -0.27296,0.46175 -0.35714,0.71429 -0.0376,0.11293 0,0.23809 0,0.35714 0,0.47619 0.11549,0.9666 0,1.42857 -0.0289,0.11549 -0.27296,-0.0842 -0.35714,0 -1.00562,0.0222 -0.091,0.80523 -0.35714,1.07143 -0.21654,0.21653 -1.51156,-0.6229 -1.78572,-0.71429 -0.46566,-0.15522 -0.97741,-0.16379 -1.42857,-0.35714 -0.39453,-0.16908 -0.70744,-0.48679 -1.07143,-0.71429 -3.14686,-1.96678 -0.46674,-0.0852 -3.57143,-2.5 -1.32896,-1.03364 -1.25274,-0.95421 -2.5,-1.78571 -0.35714,-0.23809 -0.73625,-0.44615 -1.07143,-0.71429 -0.26293,-0.21034 -0.44491,-0.51225 -0.71428,-0.71428 -0.21296,-0.15972 -0.50642,-0.19085 -0.71429,-0.35714 -0.3944,-0.31552 -0.68794,-0.74273 -1.07143,-1.07143 -0.45193,-0.38738 -0.97663,-0.68406 -1.42857,-1.07143 -0.76696,-0.6574 -1.37589,-1.48546 -2.14285,-2.14286 -0.45194,-0.38737 -0.9713,-0.69036 -1.42858,-1.07143 -0.64668,-0.5389 -1.19047,-1.19047 -1.78571,-1.78571 -0.35714,-0.35714 -0.74273,-0.68795 -1.07143,-1.07143 -0.38737,-0.45194 -0.71428,-0.95238 -1.07143,-1.42857 -0.35714,-0.47619 -0.75595,-0.92381 -1.07143,-1.42856 -0.28217,-0.45147 -0.43211,-0.9771 -0.71428,-1.42857 -0.31548,-0.50476 -0.72545,-0.94421 -1.07143,-1.42858 -0.54535,-0.76349 -1.09816,-1.6189 -1.42857,-2.5 -0.17235,-0.45959 -0.2223,-0.95661 -0.35714,-1.42857 -0.10343,-0.36197 -0.30391,-0.69875 -0.35715,-1.07143 -0.0673,-0.4714 0,-0.95238 0,-1.42857 0,-0.47619 0,-0.95238 0,-1.42857 0,-0.83333 -0.0692,-1.66954 0,-2.5 0.0504,-0.60493 0.29674,-1.1817 0.35715,-1.78571 0.31682,-3.16825 -0.53224,-0.43173 0.35714,-4.28572 0.1693,-0.73364 0.49286,-1.42323 0.71428,-2.14285 0.25488,-0.82836 0.42279,-1.68382 0.71429,-2.5 0.30042,-0.84118 1.62219,-3.79677 2.14286,-4.64286 0.53672,-0.87217 1.12421,-1.71823 1.78571,-2.5 1.305,-1.54227 2.92055,-2.79644 4.28572,-4.28572 0.62828,-0.6854 1.10031,-1.51457 1.78571,-2.14285 0.75491,-0.692 1.69164,-1.15699 2.5,-1.78572 2.08932,-1.62502 -1.52393,0.24682 2.85714,-2.14285 0.56281,-0.30699 1.16929,-0.53817 1.78572,-0.71429 0.22893,-0.0654 0.47619,0 0.71428,0 0.47619,-0.11905 0.96292,-0.20192 1.42857,-0.35714 2.2519,-0.75064 -1.56965,0.0282 2.14286,-0.71429 0.11674,-0.0234 0.2381,0 0.35714,0 0.0123,0 1.1072,0 1.42858,0 0.83333,0 1.6731,-0.10336 2.5,0 0.48705,0.0609 0.94151,0.29626 1.42857,0.35714 0.47251,0.0591 0.95606,-0.0591 1.42857,0 0.48705,0.0609 0.94151,0.29627 1.42857,0.35715 0.47251,0.0591 0.95606,-0.0591 1.42857,0 0.48706,0.0609 0.95238,0.23809 1.42857,0.35714 0.59524,0.11905 1.1824,0.29011 1.78572,0.35714 0.47328,0.0526 0.95238,0 1.42857,0 0.83333,0 1.66667,0 2.5,0 0.71428,0 1.42857,0 2.14286,0 0.35714,0 0.71787,0.0505 1.07142,0 0.48592,-0.0694 0.94073,-0.30293 1.42858,-0.35714 0.59159,-0.0657 1.19343,0.0592 1.78571,0 0.60401,-0.0604 1.1824,-0.29011 1.78571,-0.35714 0.47328,-0.0526 0.9553,0.0526 1.42858,0 0.60256,-0.0669 2.54271,-0.52241 3.21428,-0.71429 0.36198,-0.10342 0.70009,-0.29525 1.07143,-0.35714 0.35228,-0.0587 0.72803,0.0981 1.07143,0 0.51191,-0.14626 0.93007,-0.52735 1.42857,-0.71429 0.91919,-0.34469 1.92583,-0.40384 2.85714,-0.71428 0.25254,-0.0842 0.47619,-0.2381 0.71429,-0.35715 0.71428,-0.35714 1.40138,-0.77483 2.14286,-1.07142 0.34953,-0.13982 0.72189,-0.21733 1.07142,-0.35715 0.24716,-0.0989 0.4762,-0.23809 0.71429,-0.35714 0.47619,-0.2381 0.98559,-0.41896 1.42857,-0.71429 0.28017,-0.18677 0.43412,-0.5275 0.71429,-0.71428 0.0991,-0.066 0.27296,0.0842 0.35714,0 0.0842,-0.0842 -0.0532,-0.25066 0,-0.35714 0.16369,-0.32739 1.35101,-1.00939 1.42857,-1.07143 0.26293,-0.21035 0.44491,-0.51226 0.71429,-0.71429 0.42592,-0.31944 1.05211,-0.33782 1.42857,-0.71428 0.73894,-0.73895 -1.1292,0.0289 0.35714,-0.71429 0.10648,-0.0532 0.24421,0.0376 0.35714,0 0.4769,-0.15896 1.49463,-0.83856 1.78572,-1.07143 0.56235,-0.44988 0.86622,-0.97869 1.42857,-1.42857 2.70942,-2.16754 -0.49767,0.51289 2.14286,-1.07143 2.06532,-1.23919 -0.50616,-0.29753 1.42857,-1.07143 3.5951,-1.43804 -0.75828,0.27886 1.78571,-0.35714 0.25825,-0.0646 0.45604,-0.29258 0.71429,-0.35714 0.46197,-0.1155 0.97682,0.15058 1.42857,0 0.15972,-0.0532 0.19205,-0.32413 0.35714,-0.35715 0.54578,-0.10915 1.80143,0 2.5,0"
       id="path3742" />
    <ellipse
       ry="72.712555"
       rx="69.855408"
       cy="472.06781"
       cx="87.916565"
       style="fill:#ff6600;fill-opacity:1;stroke:#ff0008;stroke-width:4;stroke-linejoin:miter;stroke-miterlimit:4;stroke-dasharray:none;stroke-dashoffset:0;stroke-opacity:1"
       id="path2818-5" />
    <text
       xml:space="preserve"
       style="font-style:normal;font-variant:normal;font-weight:normal;font-stretch:normal;line-height:0%;font-family:'DejaVu Sans';-inkscape-font-specification:'DejaVu Sans';fill:#000000;fill-opacity:1;stroke:none"
       x="61.130859"
       y="532.42499"
       id="text3592-62"><tspan
         sodipodi:role="line"
         id="tspan3594-9"
         x="61.130859"
         y="532.42499"
         style="font-size:10px;line-height:1.25">Code-base</tspan></text>
    <text
       xml:space="preserve"
       style="font-style:normal;font-variant:normal;font-weight:normal;font-stretch:normal;line-height:0%;font-family:'DejaVu Sans';-inkscape-font-specification:'DejaVu Sans';fill:#000000;fill-opacity:1;stroke:none"
       x="49.130859"
       y="394.92496"
       id="text3596-1"><tspan
         sodipodi:role="line"
         id="tspan3598-2"
         x="49.130859"
         y="394.92496"
         style="font-size:10px;line-height:1.25">Understanding</tspan></text>
  </g>
</svg>
